# Exported from Figuro at https://www.figuro.io

mtllib newscene.mtl
o cube16
v -431.20077446384283 0 -752.8184429920398
v -529.7875608270493 0 -752.8184429920398
v -529.7875608270493 256 -752.8184429920398
v -431.20077446384283 256 -752.8184429920398
v -529.7875608270493 0 -873.0339652866232
v -529.7875608270493 256 -873.0339652866232
v -431.20077446384283 0 -873.0339652866232
v -431.20077446384283 256 -873.0339652866232
# 8 vertices
vt -1.684378025249386 1
vt -2.0694826594806615 1
vt -2.0694826594806615 2
vt -1.684378025249386 2
vt -2.9406970429376553 1
vt -3.410288926900872 1
vt -3.410288926900872 2
vt -2.9406970429376553 2
vt 2.0694826594806615 1
vt 1.684378025249386 1
vt 1.684378025249386 2
vt 2.0694826594806615 2
vt 3.410288926900872 1
vt 2.9406970429376553 1
vt 2.9406970429376553 2
vt 3.410288926900872 2
vt -1.684378025249386 -2.410288926900872
vt -2.0694826594806615 -2.410288926900872
vt -2.0694826594806615 -1.9406970429376553
vt -1.684378025249386 -1.9406970429376553
vt -1.684378025249386 3.9406970429376553
vt -2.0694826594806615 3.9406970429376553
vt -2.0694826594806615 4.410288926900872
vt -1.684378025249386 4.410288926900872
# 24 uvs
vn 0.3333333333333333 -0.3333333333333333 0.3333333333333333
vn -0.3333333333333333 -0.3333333333333333 0.3333333333333333
vn -0.3333333333333333 0.3333333333333333 0.3333333333333333
vn 0.3333333333333333 0.3333333333333333 0.3333333333333333
vn -0.3333333333333333 -0.3333333333333333 -0.3333333333333333
vn -0.3333333333333333 0.3333333333333333 -0.3333333333333333
vn 0.3333333333333333 -0.3333333333333333 -0.3333333333333333
vn 0.3333333333333333 0.3333333333333333 -0.3333333333333333
# 8 normals
usemtl 1cac78
f 4/4/4 3/3/3 2/2/2 1/1/1 
f 3/8/3 6/7/6 5/6/5 2/5/2 
f 6/12/6 8/11/8 7/10/7 5/9/5 
f 8/16/8 4/15/4 1/14/1 7/13/7 
f 1/20/1 2/19/2 5/18/5 7/17/7 
f 8/24/8 6/23/6 3/22/3 4/21/4 
# 6 polygons
o cube17
v 123.08192433669919 0 -783.5962610622207
v 1.5682809415154253 0 -783.5962610622207
v 1.5682809415154253 256 -783.5962610622207
v 123.08192433669919 256 -783.5962610622207
v 1.5682809415154253 0 -907.4289902038265
v 1.5682809415154253 256 -907.4289902038265
v 123.08192433669919 0 -907.4289902038265
v 123.08192433669919 256 -907.4289902038265
# 8 vertices
vt 0.4807887669402312 1
vt 0.00612609742779463 1
vt 0.00612609742779463 2
vt 0.4807887669402312 2
vt -3.0609228947742997 1
vt -3.5446444929836973 1
vt -3.5446444929836973 2
vt -3.0609228947742997 2
vt -0.00612609742779463 1
vt -0.4807887669402312 1
vt -0.4807887669402312 2
vt -0.00612609742779463 2
vt 3.5446444929836973 1
vt 3.0609228947742997 1
vt 3.0609228947742997 2
vt 3.5446444929836973 2
vt 0.4807887669402312 -2.5446444929836973
vt 0.00612609742779463 -2.5446444929836973
vt 0.00612609742779463 -2.0609228947742997
vt 0.4807887669402312 -2.0609228947742997
vt 0.4807887669402312 4.0609228947743
vt 0.00612609742779463 4.0609228947743
vt 0.00612609742779463 4.544644492983697
vt 0.4807887669402312 4.544644492983697
# 24 uvs
vn 0.3333333333333333 -0.3333333333333333 0.3333333333333333
vn -0.3333333333333333 -0.3333333333333333 0.3333333333333333
vn -0.3333333333333333 0.3333333333333333 0.3333333333333333
vn 0.3333333333333333 0.3333333333333333 0.3333333333333333
vn -0.3333333333333333 -0.3333333333333333 -0.3333333333333333
vn -0.3333333333333333 0.3333333333333333 -0.3333333333333333
vn 0.3333333333333333 -0.3333333333333333 -0.3333333333333333
vn 0.3333333333333333 0.3333333333333333 -0.3333333333333333
# 8 normals
usemtl 92a1cf
f 12/28/12 11/27/11 10/26/10 9/25/9 
f 11/32/11 14/31/14 13/30/13 10/29/10 
f 14/36/14 16/35/16 15/34/15 13/33/13 
f 16/40/16 12/39/12 9/38/9 15/37/15 
f 9/44/9 10/43/10 13/42/13 15/41/15 
f 16/48/16 14/47/14 11/46/11 12/45/12 
# 6 polygons
o cube18
v -391.0622949509807 0 -6.023905723481448
v -510.0733521131491 0 -6.023905723481448
v -510.0733521131491 256 -6.023905723481448
v -391.0622949509807 256 -6.023905723481448
v -510.0733521131491 0 -127.24983135284151
v -510.0733521131491 256 -127.24983135284151
v -391.0622949509807 0 -127.24983135284151
v -391.0622949509807 256 -127.24983135284151
# 8 vertices
vt -1.5275870896522683 1
vt -1.9924740316919887 1
vt -1.9924740316919887 2
vt -1.5275870896522683 2
vt -0.023530881732349407 1
vt -0.49706965372203715 1
vt -0.49706965372203715 2
vt -0.023530881732349407 2
vt 1.9924740316919887 1
vt 1.5275870896522683 1
vt 1.5275870896522683 2
vt 1.9924740316919887 2
vt 0.49706965372203715 1
vt 0.023530881732349407 1
vt 0.023530881732349407 2
vt 0.49706965372203715 2
vt -1.5275870896522683 0.5029303462779628
vt -1.9924740316919887 0.5029303462779628
vt -1.9924740316919887 0.9764691182676506
vt -1.5275870896522683 0.9764691182676506
vt -1.5275870896522683 1.0235308817323494
vt -1.9924740316919887 1.0235308817323494
vt -1.9924740316919887 1.4970696537220372
vt -1.5275870896522683 1.4970696537220372
# 24 uvs
vn 0.3333333333333333 -0.3333333333333333 0.3333333333333333
vn -0.3333333333333333 -0.3333333333333333 0.3333333333333333
vn -0.3333333333333333 0.3333333333333333 0.3333333333333333
vn 0.3333333333333333 0.3333333333333333 0.3333333333333333
vn -0.3333333333333333 -0.3333333333333333 -0.3333333333333333
vn -0.3333333333333333 0.3333333333333333 -0.3333333333333333
vn 0.3333333333333333 -0.3333333333333333 -0.3333333333333333
vn 0.3333333333333333 0.3333333333333333 -0.3333333333333333
# 8 normals
usemtl a9ba9d
f 20/52/20 19/51/19 18/50/18 17/49/17 
f 19/56/19 22/55/22 21/54/21 18/53/18 
f 22/60/22 24/59/24 23/58/23 21/57/21 
f 24/64/24 20/63/20 17/62/17 23/61/23 
f 17/68/17 18/67/18 21/66/21 23/65/23 
f 24/72/24 22/71/22 19/70/19 20/69/20 
# 6 polygons
o cube19
v 129.4229537361422 0 -2.8485618183372026
v 1.0304512163902757 0 -2.8485618183372026
v 1.0304512163902757 256 -2.8485618183372026
v 129.4229537361422 256 -2.8485618183372026
v 1.0304512163902757 0 -127.24983135284151
v 1.0304512163902757 256 -127.24983135284151
v 129.4229537361422 0 -127.24983135284151
v 129.4229537361422 256 -127.24983135284151
# 8 vertices
vt 0.5055584130318055 1
vt 0.0040252000640245145 1
vt 0.0040252000640245145 2
vt 0.5055584130318055 2
vt -0.011127194602879698 1
vt -0.49706965372203715 1
vt -0.49706965372203715 2
vt -0.011127194602879698 2
vt -0.0040252000640245145 1
vt -0.5055584130318055 1
vt -0.5055584130318055 2
vt -0.0040252000640245145 2
vt 0.49706965372203715 1
vt 0.011127194602879698 1
vt 0.011127194602879698 2
vt 0.49706965372203715 2
vt 0.5055584130318055 0.5029303462779628
vt 0.0040252000640245145 0.5029303462779628
vt 0.0040252000640245145 0.9888728053971203
vt 0.5055584130318055 0.9888728053971203
vt 0.5055584130318055 1.0111271946028797
vt 0.0040252000640245145 1.0111271946028797
vt 0.0040252000640245145 1.4970696537220372
vt 0.5055584130318055 1.4970696537220372
# 24 uvs
vn 0.3333333333333333 -0.3333333333333333 0.3333333333333333
vn -0.3333333333333333 -0.3333333333333333 0.3333333333333333
vn -0.3333333333333333 0.3333333333333333 0.3333333333333333
vn 0.3333333333333333 0.3333333333333333 0.3333333333333333
vn -0.3333333333333333 -0.3333333333333333 -0.3333333333333333
vn -0.3333333333333333 0.3333333333333333 -0.3333333333333333
vn 0.3333333333333333 -0.3333333333333333 -0.3333333333333333
vn 0.3333333333333333 0.3333333333333333 -0.3333333333333333
# 8 normals
usemtl 009966
f 28/76/28 27/75/27 26/74/26 25/73/25 
f 27/80/27 30/79/30 29/78/29 26/77/26 
f 30/84/30 32/83/32 31/82/31 29/81/29 
f 32/88/32 28/87/28 25/86/25 31/85/31 
f 25/92/25 26/91/26 29/90/29 31/89/31 
f 32/96/32 30/95/30 27/94/27 28/93/28 
# 6 polygons
o cube21
v 197.32422201471516 0 -553.5430013706816
v -803.477369156989 0 -553.5430013706816
v -803.477369156989 256 -553.5430013706816
v 197.32422201471516 256 -553.5430013706816
v -803.477369156989 0 -1897.2587891235357
v -803.477369156989 256 -1897.2587891235357
v 197.32422201471516 0 -1897.2587891235357
v 197.32422201471516 256 -1897.2587891235357
# 8 vertices
vt 0.7707977422449811 1
vt -3.138583473269488 1
vt -3.138583473269488 2
vt 0.7707977422449811 2
vt -2.162277349104225 1
vt -7.4111671450138115 1
vt -7.4111671450138115 2
vt -2.162277349104225 2
vt 3.138583473269488 1
vt -0.7707977422449811 1
vt -0.7707977422449811 2
vt 3.138583473269488 2
vt 7.4111671450138115 1
vt 2.162277349104225 1
vt 2.162277349104225 2
vt 7.4111671450138115 2
vt 0.7707977422449811 -6.4111671450138115
vt -3.138583473269488 -6.4111671450138115
vt -3.138583473269488 -1.162277349104225
vt 0.7707977422449811 -1.162277349104225
vt 0.7707977422449811 3.162277349104225
vt -3.138583473269488 3.162277349104225
vt -3.138583473269488 8.411167145013811
vt 0.7707977422449811 8.411167145013811
# 24 uvs
vn 0.3333333333333333 -0.3333333333333333 0.3333333333333333
vn -0.3333333333333333 -0.3333333333333333 0.3333333333333333
vn -0.3333333333333333 0.3333333333333333 0.3333333333333333
vn 0.3333333333333333 0.3333333333333333 0.3333333333333333
vn -0.3333333333333333 -0.3333333333333333 -0.3333333333333333
vn -0.3333333333333333 0.3333333333333333 -0.3333333333333333
vn 0.3333333333333333 -0.3333333333333333 -0.3333333333333333
vn 0.3333333333333333 0.3333333333333333 -0.3333333333333333
# 8 normals
usemtl 1cac78
f 36/100/36 35/99/35 34/98/34 33/97/33 
f 35/104/35 38/103/38 37/102/37 34/101/34 
f 38/108/38 40/107/40 39/106/39 37/105/37 
f 40/112/40 36/111/36 33/110/33 39/109/39 
f 33/116/33 34/115/34 37/114/37 39/113/39 
f 40/120/40 38/119/38 35/118/35 36/117/36 
# 6 polygons